<svg width="130" height="130" viewBox="0 0 130 130" fill="none" xmlns="http://www.w3.org/2000/svg">
<g clip-path="url(#clip0_28_44)">
<path d="M128.049 80.7237C119.367 115.545 84.0987 136.737 49.2729 128.054C14.4613 119.372 -6.73069 84.1016 1.95493 49.2819C10.6324 14.4562 45.901 -6.73791 80.7166 1.94365C115.54 10.6252 136.73 45.8999 128.049 80.7237Z" fill="#B8B8B8"/>
<path d="M93.6594 55.7395C94.9533 47.0905 88.368 42.4409 79.3634 39.3392L82.2844 27.623L75.1527 25.8456L72.3089 37.2531C70.4341 36.7859 68.5084 36.3452 66.595 35.9084L69.4591 24.4258L62.3314 22.6484L59.4085 34.3606C57.8566 34.0072 56.3331 33.6578 54.8544 33.2902L54.8625 33.2536L45.0272 30.7978L43.13 38.415C43.13 38.415 48.4214 39.6277 48.3097 39.7028C51.1981 40.4239 51.7202 42.3353 51.6328 43.8506L48.3056 57.198C48.5047 57.2488 48.7627 57.3219 49.047 57.4356C48.8094 57.3767 48.5555 57.3117 48.2935 57.2488L43.6297 75.9464C43.2763 76.8239 42.3805 78.1402 40.3614 77.6405C40.4325 77.7441 35.1777 76.3466 35.1777 76.3466L31.6372 84.5102L40.918 86.8238C42.6446 87.2564 44.3366 87.7094 46.0022 88.1359L43.0508 99.9863L50.1744 101.764L53.0974 90.0392C55.0433 90.5673 56.9324 91.0548 58.7808 91.5139L55.868 103.183L62.9997 104.961L65.9511 93.1328C78.1122 95.4342 87.2569 94.5059 91.1061 83.5067C94.2078 74.6505 90.9517 69.5419 84.5533 66.2106C89.213 65.1361 92.723 62.0709 93.6594 55.7395ZM77.3647 78.5891C75.1608 87.4453 60.2494 82.6577 55.415 81.4572L59.3313 65.7577C64.1656 66.9642 79.6681 69.353 77.3647 78.5891ZM79.5706 55.6116C77.5597 63.6675 65.1488 59.5745 61.1228 58.5711L64.6735 44.332C68.6994 45.3355 81.6649 47.2083 79.5706 55.6116Z" fill="white"/>
</g>
<defs>
<clipPath id="clip0_28_44">
<rect width="130" height="130" fill="white"/>
</clipPath>
</defs>
</svg>
