<svg width="130" height="130" viewBox="0 0 130 130" fill="none" xmlns="http://www.w3.org/2000/svg">
<g clip-path="url(#clip0_28_63)">
<path d="M65 130C100.899 130 130 100.899 130 65C130 29.1015 100.899 0 65 0C29.1015 0 0 29.1015 0 65C0 100.899 29.1015 130 65 130Z" fill="#A7A7A7"/>
<path d="M50.3393 71.6993C53.9985 71.6993 56.9648 68.733 56.9648 65.0738C56.9648 61.4146 53.9985 58.4482 50.3393 58.4482C46.6801 58.4482 43.7137 61.4146 43.7137 65.0738C43.7137 68.733 46.6801 71.6993 50.3393 71.6993Z" fill="white"/>
<path d="M79.6492 71.6993C83.3084 71.6993 86.2748 68.733 86.2748 65.0738C86.2748 61.4146 83.3084 58.4482 79.6492 58.4482C75.99 58.4482 73.0237 61.4146 73.0237 65.0738C73.0237 68.733 75.99 71.6993 79.6492 71.6993Z" fill="white"/>
<path d="M57.5469 59.4869C61.2061 59.4869 64.1725 56.5206 64.1725 52.8614C64.1725 49.2022 61.2061 46.2358 57.5469 46.2358C53.8877 46.2358 50.9214 49.2022 50.9214 52.8614C50.9214 56.5206 53.8877 59.4869 57.5469 59.4869Z" fill="white"/>
<path d="M72.4473 59.2418C76.1065 59.2418 79.0729 56.2755 79.0729 52.6163C79.0729 48.9571 76.1065 45.9907 72.4473 45.9907C68.7881 45.9907 65.8218 48.9571 65.8218 52.6163C65.8218 56.2755 68.7881 59.2418 72.4473 59.2418Z" fill="white"/>
<path d="M57.7923 84.5226C61.4515 84.5226 64.4178 81.5562 64.4178 77.897C64.4178 74.2378 61.4515 71.2715 57.7923 71.2715C54.1331 71.2715 51.1667 74.2378 51.1667 77.897C51.1667 81.5562 54.1331 84.5226 57.7923 84.5226Z" fill="white"/>
<path d="M72.687 84.277C76.3461 84.277 79.3125 81.3106 79.3125 77.6514C79.3125 73.9922 76.3461 71.0259 72.687 71.0259C69.0278 71.0259 66.0614 73.9922 66.0614 77.6514C66.0614 81.3106 69.0278 84.277 72.687 84.277Z" fill="white"/>
<path d="M64.7146 93.9043C66.9177 93.9043 68.7036 92.1184 68.7036 89.9153C68.7036 87.7122 66.9177 85.9263 64.7146 85.9263C62.5115 85.9263 60.7256 87.7122 60.7256 89.9153C60.7256 92.1184 62.5115 93.9043 64.7146 93.9043Z" fill="white"/>
<path d="M81.2528 96.4099C83.2416 96.4099 84.8538 94.7977 84.8538 92.809C84.8538 90.8202 83.2416 89.208 81.2528 89.208C79.2641 89.208 77.6519 90.8202 77.6519 92.809C77.6519 94.7977 79.2641 96.4099 81.2528 96.4099Z" fill="white"/>
<path d="M48.7757 96.3241C50.673 96.3241 52.2111 94.786 52.2111 92.8886C52.2111 90.9912 50.673 89.4531 48.7757 89.4531C46.8783 89.4531 45.3402 90.9912 45.3402 92.8886C45.3402 94.786 46.8783 96.3241 48.7757 96.3241Z" fill="white"/>
<path d="M43.1146 81.184C45.3082 81.184 47.0865 79.4058 47.0865 77.2121C47.0865 75.0185 45.3082 73.2402 43.1146 73.2402C40.921 73.2402 39.1427 75.0185 39.1427 77.2121C39.1427 79.4058 40.921 81.184 43.1146 81.184Z" fill="white"/>
<path d="M86.9596 81.5493C89.1532 81.5493 90.9315 79.771 90.9315 77.5774C90.9315 75.3838 89.1532 73.6055 86.9596 73.6055C84.766 73.6055 82.9877 75.3838 82.9877 77.5774C82.9877 79.771 84.766 81.5493 86.9596 81.5493Z" fill="white"/>
<path d="M86.6515 56.6338C88.8451 56.6338 90.6234 54.8555 90.6234 52.6618C90.6234 50.4682 88.8451 48.6899 86.6515 48.6899C84.4578 48.6899 82.6796 50.4682 82.6796 52.6618C82.6796 54.8555 84.4578 56.6338 86.6515 56.6338Z" fill="white"/>
<path d="M64.7318 44.3012C66.9254 44.3012 68.7037 42.5229 68.7037 40.3293C68.7037 38.1357 66.9254 36.3574 64.7318 36.3574C62.5382 36.3574 60.7599 38.1357 60.7599 40.3293C60.7599 42.5229 62.5382 44.3012 64.7318 44.3012Z" fill="white"/>
<path d="M43.2972 56.6337C45.5917 56.6337 47.4517 54.7737 47.4517 52.4792C47.4517 50.1847 45.5917 48.3247 43.2972 48.3247C41.0027 48.3247 39.1427 50.1847 39.1427 52.4792C39.1427 54.7737 41.0027 56.6337 43.2972 56.6337Z" fill="white"/>
<path d="M32.5513 68.3612C34.373 68.3612 35.8498 66.8844 35.8498 65.0627C35.8498 63.241 34.373 61.7642 32.5513 61.7642C30.7296 61.7642 29.2528 63.241 29.2528 65.0627C29.2528 66.8844 30.7296 68.3612 32.5513 68.3612Z" fill="white"/>
<path d="M20.7612 67.3796C22.0755 67.3796 23.1409 66.3141 23.1409 64.9998C23.1409 63.6856 22.0755 62.6201 20.7612 62.6201C19.4469 62.6201 18.3815 63.6856 18.3815 64.9998C18.3815 66.3141 19.4469 67.3796 20.7612 67.3796Z" fill="white"/>
<path d="M30.4113 87.7757C31.9966 87.7757 33.2818 86.4905 33.2818 84.9052C33.2818 83.3198 31.9966 82.0347 30.4113 82.0347C28.8259 82.0347 27.5408 83.3198 27.5408 84.9052C27.5408 86.4905 28.8259 87.7757 30.4113 87.7757Z" fill="white"/>
<path d="M30.1944 48.2619C31.7608 48.2619 33.0307 46.992 33.0307 45.4256C33.0307 43.8592 31.7608 42.5894 30.1944 42.5894C28.628 42.5894 27.3582 43.8592 27.3582 45.4256C27.3582 46.992 28.628 48.2619 30.1944 48.2619Z" fill="white"/>
<path d="M48.6102 40.6317C50.5327 40.6317 52.0913 39.0731 52.0913 37.1506C52.0913 35.228 50.5327 33.6694 48.6102 33.6694C46.6876 33.6694 45.129 35.228 45.129 37.1506C45.129 39.0731 46.6876 40.6317 48.6102 40.6317Z" fill="white"/>
<path d="M80.9732 40.6317C82.8958 40.6317 84.4543 39.0731 84.4543 37.1506C84.4543 35.228 82.8958 33.6694 80.9732 33.6694C79.0506 33.6694 77.4921 35.228 77.4921 37.1506C77.4921 39.0731 79.0506 40.6317 80.9732 40.6317Z" fill="white"/>
<path d="M97.5229 68.4183C99.4454 68.4183 101.004 66.8597 101.004 64.9372C101.004 63.0146 99.4454 61.4561 97.5229 61.4561C95.6003 61.4561 94.0417 63.0146 94.0417 64.9372C94.0417 66.8597 95.6003 68.4183 97.5229 68.4183Z" fill="white"/>
<path d="M42.6238 29.6408C43.8719 29.6408 44.8836 28.6291 44.8836 27.381C44.8836 26.1329 43.8719 25.1211 42.6238 25.1211C41.3757 25.1211 40.3639 26.1329 40.3639 27.381C40.3639 28.6291 41.3757 29.6408 42.6238 29.6408Z" fill="white"/>
<path d="M86.9596 29.7663C88.2077 29.7663 89.2195 28.7546 89.2195 27.5065C89.2195 26.2584 88.2077 25.2466 86.9596 25.2466C85.7115 25.2466 84.6997 26.2584 84.6997 27.5065C84.6997 28.7546 85.7115 29.7663 86.9596 29.7663Z" fill="white"/>
<path d="M64.8516 28.2996C66.4369 28.2996 67.7221 27.0144 67.7221 25.4291C67.7221 23.8438 66.4369 22.5586 64.8516 22.5586C63.2662 22.5586 61.9811 23.8438 61.9811 25.4291C61.9811 27.0144 63.2662 28.2996 64.8516 28.2996Z" fill="white"/>
<path d="M99.9653 48.0848C101.45 48.0848 102.653 46.8813 102.653 45.3969C102.653 43.9124 101.45 42.709 99.9653 42.709C98.4809 42.709 97.2775 43.9124 97.2775 45.3969C97.2775 46.8813 98.4809 48.0848 99.9653 48.0848Z" fill="white"/>
<path d="M99.7199 87.6556C101.204 87.6556 102.408 86.4522 102.408 84.9677C102.408 83.4832 101.204 82.2798 99.7199 82.2798C98.2354 82.2798 97.032 83.4832 97.032 84.9677C97.032 86.4522 98.2354 87.6556 99.7199 87.6556Z" fill="white"/>
<path d="M42.9948 104.861C44.2397 104.861 45.2489 103.852 45.2489 102.607C45.2489 101.362 44.2397 100.353 42.9948 100.353C41.7498 100.353 40.7406 101.362 40.7406 102.607C40.7406 103.852 41.7498 104.861 42.9948 104.861Z" fill="white"/>
<path d="M64.8345 107.441C66.3789 107.441 67.6308 106.189 67.6308 104.644C67.6308 103.1 66.3789 101.848 64.8345 101.848C63.2902 101.848 62.0382 103.1 62.0382 104.644C62.0382 106.189 63.2902 107.441 64.8345 107.441Z" fill="white"/>
<path d="M87.3305 105.136C88.6227 105.136 89.6703 104.088 89.6703 102.796C89.6703 101.504 88.6227 100.456 87.3305 100.456C86.0383 100.456 84.9907 101.504 84.9907 102.796C84.9907 104.088 86.0383 105.136 87.3305 105.136Z" fill="white"/>
<path d="M109.273 67.3792C110.565 67.3792 111.613 66.3317 111.613 65.0395C111.613 63.7473 110.565 62.6997 109.273 62.6997C107.981 62.6997 106.933 63.7473 106.933 65.0395C106.933 66.3317 107.981 67.3792 109.273 67.3792Z" fill="white"/>
</g>
<defs>
<clipPath id="clip0_28_63">
<rect width="130" height="130" fill="white"/>
</clipPath>
</defs>
</svg>
