<svg width="130" height="130" viewBox="0 0 130 130" fill="none" xmlns="http://www.w3.org/2000/svg">
<path d="M66.5329 10.0262C59.1836 9.82134 51.8676 11.092 45.0178 13.7632C38.1678 16.4343 31.9231 20.4517 26.6525 25.5778C21.382 30.7039 17.1927 36.8347 14.3323 43.6077C11.4719 50.3808 9.99846 57.6583 9.99917 65.0109C9.99917 66.4138 10.0533 67.8059 10.1617 69.198C10.3101 71.1664 9.87301 73.1348 8.90532 74.8551C7.93758 76.5755 6.48256 77.9714 4.72333 78.8667L0 81.2771V92.5113L13.91 85.4209L18.4167 83.1242L22.8583 80.8655L102.537 40.2621L111.491 35.7013L130 26.2708V15.0367L111.654 24.3967L95.9996 32.3754L20.41 70.8771C20.1562 68.9266 20.0296 66.9614 20.0308 64.9946C20.0412 57.1502 22.1008 49.4444 26.0055 42.6408C29.9101 35.8372 35.5245 30.1716 42.2924 26.2053C49.0603 22.2391 56.7472 20.1097 64.591 20.0281C72.4349 19.9464 80.1645 21.9154 87.0133 25.74L95.9725 21.1737L97.3104 20.4913C88.3399 13.9816 77.6122 10.3338 66.5329 10.0262ZM130 37.5104L27.3812 89.7596L18.4275 94.3313L0 103.729V114.953L18.2975 105.625L33.9517 97.6463L109.623 59.0959C109.876 61.0573 110.003 63.0333 110.002 65.0109C109.997 72.8645 107.938 80.58 104.029 87.3915C100.121 94.2035 94.4986 99.8747 87.7213 103.842C80.944 107.81 73.2463 109.936 65.3932 110.009C57.5402 110.082 49.8046 108.1 42.9542 104.26L42.4071 104.553L32.695 109.503C40.9009 115.46 50.5937 119.032 60.7024 119.826C70.8115 120.619 80.9429 118.602 89.9773 113.998C99.0123 109.395 106.598 102.383 111.897 93.7376C117.197 85.0927 120.003 75.1509 120.006 65.0109C120.006 63.6026 119.952 62.1834 119.844 60.7859C119.695 58.818 120.132 56.8507 121.099 55.1304C122.066 53.41 123.519 52.0138 125.277 51.1171L130 48.7067V37.5104Z" fill="white"/>
</svg>
