<svg width="130" height="130" viewBox="0 0 130 130" fill="none" xmlns="http://www.w3.org/2000/svg">
<g clip-path="url(#clip0_28_57)">
<path d="M65 130C100.899 130 130 100.899 130 65C130 29.1015 100.899 0 65 0C29.1015 0 0 29.1015 0 65C0 100.899 29.1015 130 65 130Z" fill="#A5A5A5"/>
<path d="M65.3253 51.977C50.2195 51.9313 21.2634 53.592 21.2634 62.2834C21.2634 68.6978 50.2652 72.293 65.3253 72.2702C80.1629 72.2702 108.731 70.387 108.731 62.2834C108.731 52.9528 80.1971 52.0112 65.3253 51.977ZM57.1418 54.973C56.5712 57.1758 58.5914 65.1139 58.5914 68.7035C58.5914 68.7035 26.4908 69.3084 26.3025 62.3176C26.3025 55.2469 57.119 54.973 57.119 54.973H57.1418ZM72.9153 54.973C72.9153 54.973 103.806 55.2983 103.806 62.3918C103.618 69.4283 72.2762 68.6693 72.2762 68.6693C72.2762 65.0626 73.5031 57.1587 72.9153 54.9388V54.973Z" fill="white"/>
<path d="M30.7081 24.1967V43.2972H55.0132L55.8806 106.237L75.8543 105.803L74.1423 42.4583H99.7542L98.8868 23.7915L30.7081 24.1967Z" fill="white"/>
</g>
<defs>
<clipPath id="clip0_28_57">
<rect width="130" height="130" fill="white"/>
</clipPath>
</defs>
</svg>
