<svg width="129" height="31" viewBox="0 0 129 31" fill="none" xmlns="http://www.w3.org/2000/svg">
<path d="M1.7788 21.9434V8.26032H3.89968L9.48042 17.34L8.63011 17.3498L14.0056 8.26032H16.0874V21.9434H13.947L13.9763 11.1729L14.3966 11.3195L9.74431 18.9918H8.14143L3.40122 11.3195L3.75307 11.1729L3.78239 21.9434H1.7788ZM19.3628 21.9434V12.2675H21.513V21.9434H19.3628ZM20.4379 10.5376C20.0534 10.5376 19.7211 10.4138 19.441 10.1662C19.1608 9.91858 19.0207 9.5928 19.0207 9.18882C19.0207 8.79136 19.1608 8.46883 19.441 8.22123C19.7211 7.96712 20.0534 7.84006 20.4379 7.84006C20.8223 7.84006 21.1546 7.96712 21.4348 8.22123C21.715 8.46883 21.8551 8.79136 21.8551 9.18882C21.8551 9.5928 21.715 9.91858 21.4348 10.1662C21.1546 10.4138 20.8223 10.5376 20.4379 10.5376ZM24.4978 21.9434V12.2675H26.648V13.499C27.0519 12.9582 27.5211 12.5705 28.0554 12.3359C28.5896 12.0948 29.1435 11.9743 29.7169 11.9743C30.603 11.9743 31.336 12.1502 31.9159 12.5021C32.4958 12.8539 32.9259 13.3068 33.2061 13.8606C33.4927 14.4145 33.6361 14.9846 33.6361 15.571V21.9434H31.4859V16.2356C31.4859 15.5449 31.2774 14.9911 30.8604 14.5741C30.4499 14.1571 29.8765 13.9486 29.1402 13.9486C28.6581 13.9486 28.228 14.0561 27.8501 14.2711C27.4787 14.4861 27.1855 14.7859 26.9705 15.1703C26.7555 15.5482 26.648 15.9913 26.648 16.4995V21.9434H24.4978ZM36.5239 21.9434V12.2675H38.6741V21.9434H36.5239ZM37.599 10.5376C37.2146 10.5376 36.8823 10.4138 36.6021 10.1662C36.3219 9.91858 36.1818 9.5928 36.1818 9.18882C36.1818 8.79136 36.3219 8.46883 36.6021 8.22123C36.8823 7.96712 37.2146 7.84006 37.599 7.84006C37.9834 7.84006 38.3157 7.96712 38.5959 8.22123C38.8761 8.46883 39.0162 8.79136 39.0162 9.18882C39.0162 9.5928 38.8761 9.91858 38.5959 10.1662C38.3157 10.4138 37.9834 10.5376 37.599 10.5376ZM41.6589 21.9434V12.2675H43.8091V13.499C44.213 12.9582 44.6822 12.5705 45.2165 12.3359C45.7508 12.0948 46.3046 11.9743 46.878 11.9743C47.7641 11.9743 48.4972 12.1502 49.0771 12.5021C49.657 12.8539 50.087 13.3068 50.3672 13.8606C50.6539 14.4145 50.7972 14.9846 50.7972 15.571V21.9434H48.647V16.2356C48.647 15.5449 48.4385 14.9911 48.0215 14.5741C47.611 14.1571 47.0376 13.9486 46.3013 13.9486C45.8192 13.9486 45.3891 14.0561 45.0112 14.2711C44.6398 14.4861 44.3466 14.7859 44.1316 15.1703C43.9166 15.5482 43.8091 15.9913 43.8091 16.4995V21.9434H41.6589ZM57.4967 26.3415C56.7735 26.3415 56.1219 26.2764 55.542 26.1461C54.9621 26.0223 54.4669 25.8398 54.0564 25.5987C53.6524 25.3577 53.3429 25.0677 53.1279 24.7289C52.9129 24.3901 52.8054 24.0122 52.8054 23.5951C52.8054 23.2628 52.8933 22.9501 53.0693 22.6569C53.2517 22.3637 53.5189 22.1128 53.8707 21.9043C54.2291 21.6893 54.6656 21.5297 55.1804 21.4254C54.7959 21.2299 54.5093 21.0084 54.3203 20.7608C54.1379 20.5132 54.0466 20.2298 54.0466 19.9105C54.0466 19.6368 54.1248 19.3795 54.2812 19.1384C54.4441 18.8908 54.6721 18.6725 54.9654 18.4835C55.2651 18.2881 55.6169 18.1284 56.0209 18.0046C56.4249 17.8808 56.8712 17.8092 57.3599 17.7896L57.829 18.7279C57.4251 18.7214 57.0797 18.7539 56.793 18.8256C56.5128 18.8908 56.2946 18.9853 56.1382 19.1091C55.9883 19.2263 55.9134 19.3697 55.9134 19.5391C55.9134 19.7606 56.0405 19.9235 56.2946 20.0278C56.5487 20.1255 56.9071 20.1939 57.3697 20.233L59.0312 20.3601C59.8457 20.4252 60.5396 20.5588 61.113 20.7608C61.6929 20.9628 62.1359 21.2462 62.4422 21.6111C62.7549 21.976 62.9113 22.4386 62.9113 22.999C62.9113 23.4746 62.781 23.9144 62.5204 24.3184C62.2663 24.7289 61.8981 25.084 61.416 25.3837C60.9403 25.6834 60.3702 25.918 59.7056 26.0874C59.041 26.2568 58.3047 26.3415 57.4967 26.3415ZM57.7117 24.8559C58.6826 24.8559 59.4449 24.7093 59.9988 24.4161C60.5591 24.1294 60.8393 23.7548 60.8393 23.2922C60.8393 22.9403 60.6536 22.6667 60.2822 22.4712C59.9108 22.2757 59.3439 22.1519 58.5816 22.0998L56.8028 21.963C56.3858 21.9955 56.0242 22.0737 55.7179 22.1975C55.4182 22.3213 55.1902 22.481 55.0338 22.6764C54.8774 22.8719 54.7992 23.0934 54.7992 23.341C54.7992 23.6408 54.9165 23.9046 55.1511 24.1327C55.3856 24.3607 55.7212 24.5367 56.1577 24.6605C56.5943 24.7908 57.1123 24.8559 57.7117 24.8559ZM57.6433 18.8745C56.8354 18.8745 56.1089 18.7214 55.4638 18.4151C54.8253 18.1089 54.3203 17.6951 53.9489 17.1739C53.5775 16.6526 53.3918 16.0695 53.3918 15.4244C53.3918 14.7793 53.5775 14.1962 53.9489 13.6749C54.3268 13.1537 54.835 12.7399 55.4736 12.4337C56.1186 12.1274 56.8419 11.9743 57.6433 11.9743C58.4448 11.9743 59.1648 12.1274 59.8033 12.4337C60.4418 12.7399 60.9468 13.1537 61.3182 13.6749C61.6961 14.1962 61.8851 14.7793 61.8851 15.4244C61.8851 16.0629 61.6994 16.6428 61.328 17.1641C60.9566 17.6854 60.4516 18.1024 59.8131 18.4151C59.1745 18.7214 58.4513 18.8745 57.6433 18.8745ZM57.6433 17.2618C58.0864 17.2618 58.4806 17.1869 58.8259 17.037C59.1713 16.8807 59.4417 16.6656 59.6372 16.392C59.8326 16.1118 59.9304 15.7893 59.9304 15.4244C59.9304 14.8771 59.7153 14.434 59.2853 14.0952C58.8618 13.7498 58.3145 13.5772 57.6433 13.5772C57.1937 13.5772 56.7963 13.6554 56.4509 13.8117C56.1121 13.9681 55.845 14.1864 55.6495 14.4666C55.454 14.7402 55.3563 15.0595 55.3563 15.4244C55.3563 15.9652 55.5681 16.4083 55.9916 16.7536C56.4216 17.0924 56.9722 17.2618 57.6433 17.2618ZM59.1485 13.9681L58.347 12.4728L63.5368 12.2675L63.5173 14.0463L59.1485 13.9681Z" fill="white"/>
<path d="M74.3754 23.2953C72.7625 23.2953 71.3382 22.9698 70.1026 22.3187C68.8744 21.6602 67.9126 20.7279 67.2171 19.5219C66.529 18.3159 66.1849 16.8916 66.1849 15.2491C66.1849 14.0505 66.3847 12.9517 66.7842 11.9529C67.1912 10.954 67.7646 10.0921 68.5045 9.36699C69.2443 8.64191 70.1174 8.08329 71.1237 7.69116C72.1299 7.29162 73.2323 7.09185 74.4309 7.09185C75.7701 7.09185 76.8799 7.26202 77.7604 7.60237C78.6483 7.93532 79.4584 8.41254 80.1909 9.03404L78.171 12.3857C77.7567 11.9492 77.2536 11.6199 76.6617 11.398C76.0772 11.176 75.4224 11.065 74.6973 11.065C74.024 11.065 73.4247 11.1612 72.8994 11.3536C72.3741 11.5459 71.9301 11.8234 71.5676 12.1859C71.2124 12.5411 70.9387 12.9739 70.7463 13.4844C70.5613 13.9876 70.4689 14.5573 70.4689 15.1936C70.4689 16.0518 70.639 16.788 70.9794 17.4021C71.3197 18.0162 71.808 18.4898 72.4443 18.8227C73.088 19.1483 73.8612 19.311 74.7639 19.311C75.4298 19.311 76.0957 19.2074 76.7616 19.0003C77.4349 18.7931 78.0749 18.4676 78.6816 18.0236L80.5461 21.4419C79.8358 21.982 78.9738 22.4259 77.9602 22.7737C76.9465 23.1214 75.7516 23.2953 74.3754 23.2953ZM82.6596 22.9624V7.4248H86.7437V19.2333H92.8034V22.9624H82.6596ZM101.707 23.2953C100.228 23.2953 98.9845 23.0067 97.9783 22.4296C96.9795 21.8451 96.2211 21.0387 95.7032 20.0102C95.1926 18.9818 94.9374 17.798 94.9374 16.4588V7.4248H99.0215V16.6474C99.0215 17.6019 99.2546 18.3122 99.7207 18.7783C100.194 19.237 100.856 19.4664 101.707 19.4664C102.558 19.4664 103.217 19.237 103.683 18.7783C104.149 18.3122 104.382 17.6019 104.382 16.6474V7.4248H108.488V16.4588C108.488 17.7906 108.229 18.9707 107.711 19.9991C107.201 21.0276 106.443 21.834 105.436 22.4185C104.43 23.003 103.187 23.2953 101.707 23.2953Z" fill="white"/>
<path d="M125.658 13.8523C126.995 13.1729 127.831 11.9765 127.636 9.98341C127.373 7.25957 125.015 6.34621 122.04 6.08609L122.039 2.30791H119.733L119.733 5.98674C119.126 5.98674 118.508 5.99863 117.892 6.01095L117.892 2.30842L115.588 2.3082L115.588 6.08545C115.088 6.09562 114.598 6.10529 114.119 6.10529V6.09412L110.939 6.09283L110.939 8.54867C110.939 8.54867 112.642 8.51672 112.614 8.54774C113.548 8.54838 113.852 9.08924 113.94 9.55609L113.941 13.8602V19.9061C113.9 20.1991 113.727 20.6673 113.074 20.6681C113.104 20.6942 111.397 20.6678 111.397 20.6678L110.939 23.414H113.939C114.498 23.4147 115.048 23.4233 115.587 23.4276L115.589 27.2486L117.892 27.2492L117.891 23.4683C118.525 23.4812 119.136 23.4868 119.734 23.486L119.733 27.2492H122.038L122.04 23.4347C125.915 23.2126 128.629 22.2385 128.966 18.6074C129.238 15.684 127.859 14.3791 125.658 13.8523ZM117.947 8.71444C119.248 8.71444 123.337 8.30131 123.338 11.0114C123.337 13.6096 119.249 13.3061 117.947 13.3061V8.71444ZM117.946 20.6868L117.947 15.6241C119.51 15.6236 124.41 15.1755 124.411 18.1543C124.411 21.0108 119.51 20.6856 117.946 20.6868Z" fill="url(#paint0_linear_3_956)"/>
<defs>
<linearGradient id="paint0_linear_3_956" x1="110.761" y1="8.42728" x2="128.822" y2="20.7848" gradientUnits="userSpaceOnUse">
<stop stop-color="#B08A48"/>
<stop offset="0.541322" stop-color="#FDF3A1"/>
<stop offset="1" stop-color="#695333"/>
</linearGradient>
</defs>
</svg>
