<svg width="236" height="45" viewBox="0 0 236 45" fill="none" xmlns="http://www.w3.org/2000/svg">
<path d="M32.3542 10.678V32.879H28.6245V11.8621L29.8381 11.9213L19.5073 32.879H15.3335L5.00262 11.9509L6.21628 11.8917V32.879H2.48651V10.678H8.46598L18.412 31.1918H16.4583L26.3748 10.678H32.3542ZM36.8761 16.0063L38.8002 16.3615L40.7242 16.0063V32.879H36.8761V16.0063ZM38.8002 13.9046C38.07 13.9046 37.4681 13.7072 36.9945 13.3126C36.5209 12.8981 36.284 12.3653 36.284 11.7141C36.284 11.0629 36.5209 10.5399 36.9945 10.1452C37.4681 9.7308 38.07 9.52359 38.8002 9.52359C39.5501 9.52359 40.152 9.7308 40.6058 10.1452C41.0795 10.5399 41.3163 11.0629 41.3163 11.7141C41.3163 12.3653 41.0795 12.8981 40.6058 13.3126C40.152 13.7072 39.5501 13.9046 38.8002 13.9046ZM43.9975 16.1247H47.8457L48.8521 22.1634V32.879H45.0039V21.6009L43.9975 16.1247ZM55.5124 15.7103C57.0912 15.7103 58.4331 16.026 59.5382 16.6575C60.6433 17.289 61.482 18.1968 62.0543 19.3808C62.6463 20.5451 62.9423 21.9561 62.9423 23.6138V32.879H59.0942V24.2354C59.0942 22.4791 58.6798 21.1569 57.8509 20.2689C57.0418 19.3611 55.8479 18.9072 54.2692 18.9072C53.1838 18.9072 52.2267 19.1539 51.3978 19.6472C50.5887 20.1209 49.9572 20.7918 49.5033 21.6601C49.0692 22.5284 48.8521 23.5447 48.8521 24.7091L47.4905 23.969C47.6681 22.2324 48.122 20.7524 48.8521 19.5288C49.5823 18.3053 50.5197 17.3679 51.6642 16.7167C52.8088 16.0457 54.0916 15.7103 55.5124 15.7103ZM66.7954 16.0063L68.7195 16.3615L70.6435 16.0063V32.879H66.7954V16.0063ZM68.7195 13.9046C67.9893 13.9046 67.3874 13.7072 66.9138 13.3126C66.4402 12.8981 66.2033 12.3653 66.2033 11.7141C66.2033 11.0629 66.4402 10.5399 66.9138 10.1452C67.3874 9.7308 67.9893 9.52359 68.7195 9.52359C69.4694 9.52359 70.0712 9.7308 70.5251 10.1452C70.9988 10.5399 71.2356 11.0629 71.2356 11.7141C71.2356 12.3653 70.9988 12.8981 70.5251 13.3126C70.0712 13.7072 69.4694 13.9046 68.7195 13.9046ZM73.9168 16.1247H77.765L78.7714 22.1634V32.879H74.9232V21.6009L73.9168 16.1247ZM85.4317 15.7103C87.0105 15.7103 88.3524 16.026 89.4575 16.6575C90.5626 17.289 91.4013 18.1968 91.9736 19.3808C92.5656 20.5451 92.8616 21.9561 92.8616 23.6138V32.879H89.0135V24.2354C89.0135 22.4791 88.5991 21.1569 87.7702 20.2689C86.9611 19.3611 85.7672 18.9072 84.1885 18.9072C83.1031 18.9072 82.146 19.1539 81.3171 19.6472C80.508 20.1209 79.8765 20.7918 79.4226 21.6601C78.9885 22.5284 78.7714 23.5447 78.7714 24.7091L77.4098 23.969C77.5874 22.2324 78.0413 20.7524 78.7714 19.5288C79.5016 18.3053 80.439 17.3679 81.5835 16.7167C82.7281 16.0457 84.0109 15.7103 85.4317 15.7103ZM111.93 28.7644V25.8043L112.078 25.2715V22.0449L111.93 21.4529V16.1247H115.778V28.4092C115.778 30.5603 115.324 32.3561 114.416 33.7967C113.508 35.257 112.265 36.3522 110.686 37.0824C109.108 37.8126 107.292 38.1777 105.24 38.1777C103.74 38.1777 102.359 37.9803 101.096 37.5856C99.8327 37.191 98.6092 36.5891 97.4251 35.78V32.583C98.6289 33.5303 99.8721 34.1914 101.155 34.5663C102.438 34.961 103.72 35.1583 105.003 35.1583C107.253 35.1583 108.97 34.6058 110.154 33.5007C111.338 32.3955 111.93 30.8168 111.93 28.7644ZM103.878 31.5766C102.339 31.5766 100.958 31.251 99.734 30.5997C98.5105 29.9288 97.5435 29.0013 96.8331 27.8172C96.1226 26.6332 95.7674 25.2419 95.7674 23.6434C95.7674 22.0449 96.1226 20.6537 96.8331 19.4696C97.5435 18.2856 98.5105 17.3679 99.734 16.7167C100.958 16.0457 102.339 15.7103 103.878 15.7103C105.023 15.7103 106.079 15.8879 107.046 16.2431C108.032 16.5983 108.91 17.0719 109.68 17.664C110.469 18.2362 111.131 18.8776 111.663 19.588C112.216 20.2787 112.64 20.9892 112.936 21.7193C113.232 22.4298 113.38 23.081 113.38 23.673C113.38 24.4427 113.153 25.2912 112.699 26.2187C112.245 27.1265 111.594 27.9849 110.746 28.794C109.917 29.6031 108.92 30.2741 107.756 30.8069C106.592 31.32 105.299 31.5766 103.878 31.5766ZM105.062 28.7348C106.463 28.7348 107.746 28.3303 108.91 27.5212C110.094 26.7121 111.15 25.4195 112.078 23.6434C111.15 21.8279 110.094 20.5254 108.91 19.736C107.746 18.9269 106.463 18.5224 105.062 18.5224C103.918 18.5224 102.941 18.7395 102.132 19.1736C101.323 19.6078 100.701 20.2097 100.267 20.9793C99.8524 21.7489 99.6452 22.637 99.6452 23.6434C99.6452 24.6301 99.8524 25.5083 100.267 26.2779C100.701 27.0476 101.323 27.6495 102.132 28.0836C102.941 28.5178 103.918 28.7348 105.062 28.7348Z" fill="white"/>
<path d="M148.549 23.2774C148.28 25.5183 147.496 27.4902 146.196 29.1933C144.918 30.8964 143.215 32.2185 141.087 33.1597C138.98 34.1008 136.56 34.5714 133.826 34.5714C130.868 34.5714 128.28 34.0224 126.061 32.9244C123.843 31.8263 122.118 30.2913 120.885 28.3194C119.653 26.3474 119.036 24.0393 119.036 21.395C119.036 18.7508 119.653 16.4427 120.885 14.4707C122.118 12.4988 123.843 10.9638 126.061 9.86572C128.28 8.76769 130.868 8.21867 133.826 8.21867C136.56 8.21867 138.98 8.68926 141.087 9.63043C143.215 10.5716 144.918 11.8937 146.196 13.5968C147.496 15.2774 148.28 17.2494 148.549 19.5127H140.683C140.459 18.5491 140.045 17.7312 139.44 17.0589C138.857 16.3643 138.095 15.8377 137.154 15.4791C136.213 15.0982 135.103 14.9077 133.826 14.9077C132.392 14.9077 131.159 15.1654 130.129 15.6808C129.098 16.1962 128.302 16.9469 127.742 17.9329C127.182 18.8965 126.902 20.0505 126.902 21.395C126.902 22.7396 127.182 23.8936 127.742 24.8572C128.302 25.8208 129.098 26.5715 130.129 27.1093C131.159 27.6247 132.392 27.8824 133.826 27.8824C135.103 27.8824 136.213 27.7143 137.154 27.3782C138.095 27.0197 138.857 26.4931 139.44 25.7984C140.045 25.1037 140.459 24.2634 140.683 23.2774H148.549ZM159.553 8.7901V30.5378L156.024 27.0421H174.813V34H151.721V8.7901H159.553ZM184.263 22.5715C184.263 23.6247 184.453 24.5211 184.834 25.2606C185.215 26.0001 185.787 26.5827 186.548 27.0085C187.31 27.4118 188.263 27.6135 189.406 27.6135C190.593 27.6135 191.568 27.4118 192.33 27.0085C193.092 26.6051 193.652 26.0337 194.011 25.2942C194.392 24.5323 194.582 23.6247 194.582 22.5715V8.7901H202.414V23.0085C202.414 25.3166 201.876 27.3446 200.8 29.0925C199.725 30.818 198.212 32.1625 196.263 33.1261C194.313 34.0896 192.027 34.5714 189.406 34.5714C186.829 34.5714 184.565 34.0896 182.616 33.1261C180.666 32.1625 179.142 30.818 178.044 29.0925C176.969 27.3446 176.431 25.3166 176.431 23.0085V8.7901H184.263V22.5715Z" fill="white"/>
<path d="M230.29 19.4822C232.314 18.4534 233.581 16.6417 233.285 13.6234C232.887 9.49853 229.317 8.11537 224.81 7.72147L224.809 2H221.318L221.317 7.57101C220.398 7.57101 219.462 7.58902 218.529 7.60768L218.529 2.00076L215.04 2.00043L215.04 7.7205C214.283 7.7359 213.541 7.75055 212.816 7.75055V7.73362L208 7.73167L208.001 11.4507C208.001 11.4507 210.579 11.4023 210.537 11.4493C211.95 11.4502 212.412 12.2693 212.545 12.9763L212.546 19.4942V28.6498C212.484 29.0935 212.222 29.8024 211.233 29.8037C211.278 29.8432 208.693 29.8033 208.693 29.8033L208.001 33.962H212.544C213.39 33.9629 214.222 33.9761 215.038 33.9826L215.041 39.7688L218.529 39.7698L218.528 34.0442C219.487 34.0637 220.413 34.0722 221.318 34.071L221.317 39.7698H224.809L224.81 33.9932C230.679 33.6569 234.788 32.1819 235.299 26.6831C235.711 22.2561 233.622 20.2799 230.29 19.4822ZM218.613 11.7017C220.582 11.7017 226.775 11.0761 226.776 15.1801C226.775 19.1146 220.584 18.655 218.613 18.655V11.7017ZM218.611 29.8319L218.613 22.1653C220.979 22.1646 228.4 21.4861 228.401 25.9969C228.402 30.3227 220.979 29.8302 218.611 29.8319Z" fill="url(#paint0_linear_7_5)"/>
<defs>
<linearGradient id="paint0_linear_7_5" x1="207.73" y1="11.2668" x2="235.081" y2="29.9805" gradientUnits="userSpaceOnUse">
<stop stop-color="#B08A48"/>
<stop offset="0.541322" stop-color="#FDF3A1"/>
<stop offset="1" stop-color="#695333"/>
</linearGradient>
</defs>
</svg>
